<svg xmlns="http://www.w3.org/2000/svg">

  <symbol id="discordIcon" viewBox="0 0 129 100">
    <path d="M108.976 8.3402C100.54 4.39282 91.6145 1.58804 82.4366 0C81.2933 2.06683 79.9577 4.84673 79.0365 7.05829C69.1411 5.57035 59.3365 5.57035 49.623 7.05829C48.7024 4.84724 47.3366 2.06683 46.1828 0C36.9958 1.58877 28.063 4.4007 19.6225 8.3608C2.8265 33.7422 -1.72677 58.4925 0.549614 82.8925C11.6898 91.2116 22.4858 96.2653 33.0999 99.5724C35.7377 95.9448 38.0695 92.1043 40.0712 88.0905C36.2603 86.6396 32.5864 84.8516 29.0933 82.7477C30.0126 82.0664 30.9102 81.3563 31.7848 80.6186C52.9516 90.5191 75.9506 90.5191 96.8652 80.6186C97.7436 81.3515 98.6409 82.0614 99.5561 82.7477C96.0574 84.8571 92.3767 86.6487 88.5582 88.101C90.5712 92.1312 92.8989 95.9754 95.5295 99.5824C106.154 96.2759 116.96 91.2221 128.1 82.8925C130.771 54.607 123.537 30.0834 108.976 8.3397V8.3402ZM42.9551 67.8869C36.6009 67.8869 31.3898 61.9548 31.3898 54.7312C31.3898 47.5075 36.4898 41.5653 42.9551 41.5653C49.421 41.5653 54.6315 47.497 54.5205 54.7312C54.5305 61.9548 49.421 67.8869 42.9551 67.8869ZM85.6943 67.8869C79.3401 67.8869 74.1295 61.9548 74.1295 54.7312C74.1295 47.5075 79.229 41.5653 85.6943 41.5653C92.1602 41.5653 97.3707 47.497 97.2597 54.7312C97.2597 61.9548 92.1602 67.8869 85.6943 67.8869V67.8869Z" fill="#5865F2"/>
  </symbol>

  <symbol id="twitterIcon" viewBox="0 0 100 100">
    <path d="M80.6139 23.1486C80.6139 23.1486 77.025 26.0417 71.9903 26.5625C71.9903 26.5625 64.0625 17.7083 52.7194 25.4056C47.6278 28.9931 47.1639 36.5736 48.0319 39.2944C48.0319 39.2944 32.6389 40.5097 19.2125 24.7681C19.2125 24.7681 13.1944 35.1847 23.1486 43.5181C23.1486 43.5181 20.2056 43.9819 17.4097 41.6667C17.4097 41.6667 16.0875 52.4306 28.125 55.4403C28.125 55.4403 27.3153 56.8292 22.4542 55.4403C22.4542 55.4403 23.2639 64.2361 34.7222 65.5097C34.7222 65.5097 28.5319 71.875 14.6139 71.0653C14.6139 71.0653 37.6153 88.3097 62.5 67.4764C76.3889 55.6708 75.9264 38.6569 75.6944 36.1111C75.6944 36.1111 81.1806 31.9444 82.6042 29.2819C82.6042 29.2819 78.3569 30.6708 74.8847 30.6708C74.8847 30.6708 79.5139 28.2403 80.6139 23.1486V23.1486Z" fill="#61B2E4"/>
  </symbol>

</svg>